<?xml version="1.0" standalone="no"?>
<!DOCTYPE svg PUBLIC "-//W3C//DTD SVG 20010904//EN"
 "http://www.w3.org/TR/2001/REC-SVG-20010904/DTD/svg10.dtd">
<svg version="1.0" xmlns="http://www.w3.org/2000/svg"
 width="196.000000pt" height="90.000000pt" viewBox="0 0 196.000000 90.000000"
 preserveAspectRatio="xMidYMid meet">

<g transform="translate(0.000000,90.000000) scale(0.100000,-0.100000)"
fill="#000000" stroke="none">
<path d="M849 808 c0 -2 -21 -70 -47 -153 l-48 -150 -32 -3 c-18 -2 -32 -2
-32 0 0 2 14 50 30 108 17 58 30 108 30 112 0 5 -25 8 -55 8 l-54 0 -16 -52
c-8 -29 -53 -177 -99 -328 -45 -151 -81 -278 -79 -282 2 -5 27 -8 54 -8 60 0
56 -7 114 192 l41 143 32 3 c20 2 32 -1 32 -9 0 -9 -44 -162 -65 -226 -3 -10
12 -13 55 -13 l59 0 25 83 c92 308 166 560 166 568 0 8 -109 14 -111 7z"/>
<path d="M965 678 c-8 -29 -46 -160 -83 -290 l-69 -238 108 0 109 0 15 36 c24
57 21 64 -29 64 -25 0 -47 4 -50 8 -3 5 4 39 15 75 l20 67 50 0 c53 0 57 5 75
75 6 24 4 25 -45 25 -51 0 -51 0 -45 28 23 93 27 97 86 100 l56 3 11 44 c6 24
11 46 11 49 0 3 -49 6 -110 6 l-109 0 -16 -52z"/>
<path d="M1246 713 c-37 -123 -186 -638 -186 -645 0 -5 25 -8 56 -6 l57 3 47
165 c46 159 49 165 75 168 27 4 28 2 22 -35 -3 -21 -17 -77 -31 -126 l-25 -87
58 0 58 0 33 115 c18 63 30 124 27 136 -4 14 0 27 9 33 8 6 30 64 50 129 33
111 34 120 19 143 -15 23 -19 24 -140 24 -109 0 -124 -2 -129 -17z m149 -83
c4 -6 -3 -42 -14 -80 -20 -66 -23 -70 -51 -70 -37 0 -38 13 -9 98 18 52 24 62
44 62 13 0 27 -5 30 -10z"/>
<path d="M1601 713 c-15 -13 -40 -86 -91 -257 -38 -132 -70 -248 -70 -257 0
-39 27 -49 130 -49 125 0 144 7 164 62 23 62 123 407 131 449 11 60 -7 69
-135 69 -88 0 -112 -3 -129 -17z m139 -87 c0 -23 -101 -360 -112 -373 -13 -16
-58 -17 -58 -2 0 7 15 64 34 128 19 64 44 149 56 189 20 68 22 72 50 72 19 0
30 -5 30 -14z"/>
<path d="M335 663 c-9 -7 -65 -178 -65 -198 0 -3 23 -5 51 -3 49 3 51 4 64 42
8 22 12 43 10 47 -3 3 2 21 11 38 24 49 16 75 -26 79 -19 1 -40 -1 -45 -5z
m41 -58 c-7 -29 -26 -34 -26 -7 0 18 20 45 28 37 2 -2 2 -16 -2 -30z m-21 -77
c-15 -48 -41 -52 -29 -4 3 14 13 26 21 26 10 0 12 -6 8 -22z"/>
<path d="M453 658 c-6 -7 -13 -24 -16 -38 -4 -14 -15 -55 -26 -92 l-20 -68 39
0 c43 0 66 28 30 37 -23 6 -24 8 -10 34 6 10 20 19 30 19 11 0 20 7 20 15 0 8
-7 15 -16 15 -25 0 -13 44 14 48 20 3 26 11 20 29 -5 14 -55 14 -65 1z"/>
<path d="M134 408 c-4 -6 -2 -14 4 -16 17 -5 15 -27 -8 -100 -25 -78 -25 -82
-1 -82 14 0 23 17 41 84 17 63 27 86 41 89 11 3 19 12 19 21 0 12 -10 16 -44
16 -25 0 -48 -5 -52 -12z"/>
<path d="M253 408 c-11 -15 -53 -159 -53 -182 0 -32 29 -15 42 26 7 23 19 44
27 46 14 5 14 3 -5 -67 -6 -19 -3 -22 12 -19 19 3 55 94 70 176 6 29 4 33 -12
30 -11 -2 -22 -17 -29 -41 -6 -21 -15 -38 -20 -37 -11 1 -11 15 -1 55 7 27
-13 36 -31 13z"/>
<path d="M375 410 c-9 -14 -55 -171 -55 -187 0 -22 74 -13 78 10 2 10 -3 17
-12 17 -9 0 -16 4 -16 9 0 23 14 41 31 41 22 0 26 25 5 33 -21 8 -8 45 17 49
12 2 23 11 25 21 3 13 -4 17 -32 17 -19 0 -38 -4 -41 -10z"/>
</g>
</svg>
